<?xml version="1.0" encoding="UTF-8"?>
<svg xmlns="http://www.w3.org/2000/svg" width="54" height="31.177" viewBox="0 0 54 31.177" overflow="hidden">
  <defs>
    <filter id="sdb-hex-glow" x="-50%" y="-50%" width="200%" height="200%" color-interpolation-filters="sRGB">
      <feGaussianBlur in="SourceGraphic" stdDeviation="0.35" result="blur"/>
      <feMerge>
        <feMergeNode in="blur"/>
        <feMergeNode in="SourceGraphic"/>
      </feMerge>
    </filter>
  </defs>
  <g fill="#06080c" stroke="#22d3ee" stroke-width="1.75" stroke-opacity="0.58"
     stroke-linejoin="round" filter="url(#sdb-hex-glow)">
    <polygon points="0.000,15.588 -9.000,31.177 -27.000,31.177 -36.000,15.588 -27.000,0.000 -9.000,0.000"/>
    <polygon points="36.000,15.588 27.000,31.177 9.000,31.177 0.000,15.588 9.000,0.000 27.000,0.000"/>
    <polygon points="72.000,15.588 63.000,31.177 45.000,31.177 36.000,15.588 45.000,0.000 63.000,0.000"/>
    <polygon points="27.000,31.177 18.000,46.765 0.000,46.765 -9.000,31.177 0.000,15.588 18.000,15.588"/>
    <polygon points="63.000,31.177 54.000,46.765 36.000,46.765 27.000,31.177 36.000,15.588 54.000,15.588"/>
    <polygon points="99.000,31.177 90.000,46.765 72.000,46.765 63.000,31.177 72.000,15.588 90.000,15.588"/>
  </g>
</svg>
